<svg width="100" height="101" viewBox="0 0 100 101" fill="none" xmlns="http://www.w3.org/2000/svg">
<g clip-path="url(#clip0_309_40)">
<path d="M92.1104 77.5668C86.6696 77.4291 82.4527 77.9815 78.916 79.5001C77.8957 79.914 76.2632 79.9144 76.1272 81.2262C76.6713 81.7786 76.7394 82.6762 77.2155 83.4353C78.0325 84.8158 79.4598 86.6801 80.7522 87.6471C82.1802 88.7514 83.609 89.8558 85.1047 90.8224C87.7575 92.4795 90.7504 93.4458 93.3348 95.1029C94.8316 96.0687 96.3269 97.3123 97.8233 98.3476C98.5716 98.8992 99.0473 99.7976 100 100.142V99.9357C99.5235 99.3139 99.3874 98.4167 98.9117 97.7262C98.2323 97.0358 97.5513 96.4143 96.8711 95.7239C94.8989 93.0319 92.4505 90.6843 89.7981 88.7514C87.6218 87.2324 82.8604 85.1614 81.9766 82.6067C81.9766 82.6067 81.9081 82.5381 81.8405 82.469C83.3366 82.331 85.1047 81.7786 86.5335 81.3643C88.8458 80.7425 90.9541 80.881 93.3348 80.2596C94.4227 79.9834 95.511 79.6382 96.599 79.2929V78.6719C95.3754 77.4291 94.4911 75.7724 93.1987 74.5986C89.7301 71.5602 85.921 68.592 81.9766 66.1068C79.8679 64.7258 77.1471 63.8282 74.9028 62.6549C74.0874 62.2402 72.7266 62.0334 72.2508 61.343C71.026 59.8244 70.3458 57.8224 69.462 56.0272C67.4902 52.2297 65.5852 48.0187 63.8847 44.0148C62.6611 41.3221 61.9129 38.6293 60.4164 36.1444C53.4111 24.4078 45.7936 17.2969 34.0957 10.3236C31.5789 8.87406 28.5864 8.25264 25.3898 7.49354C23.6901 7.42409 21.9892 7.2864 20.2891 7.21696C19.2008 6.73363 18.1124 5.42216 17.1602 4.80075C13.2842 2.31509 3.28555 -3.0693 0.429089 4.04164C-1.40746 8.52883 3.1499 12.947 4.71359 15.2259C5.87072 16.8135 7.36639 18.6083 8.18263 20.4035C8.65877 21.5765 8.79443 22.8201 9.27057 24.0626C10.3593 27.0994 11.3788 30.483 12.8076 33.3139C13.5559 34.7635 14.3717 36.2821 15.324 37.594C15.8682 38.3531 16.8201 38.6987 17.0245 39.9411C16.0726 41.3221 16.0042 43.3934 15.4596 45.1192C13.0113 52.9206 13.964 62.5858 17.4322 68.3158C18.5202 70.0412 21.1049 73.8395 24.5736 72.3891C27.6345 71.1467 26.9543 67.2115 27.8378 63.7596C28.0426 62.9303 27.9066 62.3787 28.3143 61.8263V61.9648C29.2666 63.8973 30.2185 65.7619 31.1028 67.6948C33.2114 71.0773 36.8837 74.5986 39.9442 76.9462C41.5771 78.1882 42.8691 80.3286 44.9097 81.0881V80.8806H44.7733C44.3652 80.2592 43.753 79.9834 43.2092 79.4997C41.9852 78.2576 40.6245 76.7386 39.6726 75.3577C36.8165 71.4911 34.2993 67.2111 32.0551 62.7926C30.9671 60.6529 30.0144 58.3054 29.1306 56.1653C28.7221 55.336 28.7221 54.094 28.0422 53.6801C27.0219 55.1987 25.5259 56.5106 24.7777 58.3744C23.486 61.343 23.3496 65.002 22.8735 68.7988C22.6014 68.8686 22.737 68.7988 22.601 68.9376C20.4251 68.3845 19.6769 66.1068 18.8603 64.1735C16.8197 59.272 16.4796 51.4016 18.2485 45.7406C18.7246 44.2906 20.7652 39.7344 19.949 38.3535C19.5409 37.0416 18.1801 36.2821 17.4322 35.2468C16.5484 33.9349 15.5957 32.2786 14.9839 30.8283C13.3514 26.9621 12.5352 22.6817 10.767 18.8155C9.95077 17.0203 8.52312 15.1568 7.36639 13.4997C6.07439 11.6359 4.64596 10.3236 3.62566 8.11455C3.28595 7.35544 2.80941 6.11262 3.35357 5.28407C3.48962 4.7317 3.76131 4.52496 4.30586 4.38687C5.19013 3.62697 7.70688 4.59361 8.59036 5.00788C11.1071 6.04278 13.2154 7.01022 15.324 8.45978C16.2759 9.15024 17.2962 10.4621 18.5202 10.8073H19.9486C22.1252 11.2903 24.5732 10.9454 26.6138 11.5665C30.2189 12.7398 33.4831 14.466 36.408 16.3302C45.3179 22.0602 52.6625 30.2069 57.628 39.9411C58.4442 41.5284 58.7839 42.9792 59.5322 44.6355C60.961 48.0187 62.7291 51.4706 64.1568 54.7844C65.5852 58.0288 66.9452 61.343 68.9858 64.0358C70.0061 65.485 74.0866 66.2449 75.9231 67.0044C77.2835 67.6254 79.3922 68.1781 80.6161 68.9372C82.9284 70.3864 85.2407 72.0443 87.4174 73.6316C88.5057 74.4601 91.906 76.1863 92.1104 77.5668Z" fill="#00546B"/>
<path d="M22.7367 17.5723C21.5807 17.5723 20.7649 17.7112 19.9486 17.9179V18.056H20.0846C20.6292 19.1607 21.5807 19.9202 22.2605 20.8865C22.8051 21.9908 23.2808 23.0959 23.8254 24.2007C23.893 24.1312 23.961 24.0626 23.961 24.0626C24.9137 23.3717 25.3894 22.2674 25.3894 20.6103C24.9813 20.1274 24.9133 19.644 24.5732 19.1607C24.1655 18.4699 23.2808 18.125 22.7367 17.5723Z" fill="#00546B"/>
</g>
<defs>
<clipPath id="clip0_309_40">
<rect width="100" height="100" fill="white" transform="translate(0 0.5)"/>
</clipPath>
</defs>
</svg>
