<svg width="124" height="123" viewBox="0 0 124 123" fill="none" xmlns="http://www.w3.org/2000/svg">
<path fill-rule="evenodd" clip-rule="evenodd" d="M62 93.0836C96.2417 93.0836 124 79.1293 124 61.917C124 44.7047 96.2417 30.7505 62 30.7505C27.759 30.7505 0 44.7047 0 61.917C0 79.1293 27.759 93.0836 62 93.0836Z" fill="#6E81B6"/>
<path fill-rule="evenodd" clip-rule="evenodd" d="M74.565 71.9905L77.6405 56.2901C78.3346 52.7465 77.7574 50.1035 75.9258 48.4332C74.1512 46.8173 71.1389 46.0312 66.7171 46.0312H61.391L62.9145 38.2524C62.943 38.1076 62.9389 37.9583 62.9024 37.8153C62.866 37.6723 62.798 37.5391 62.7034 37.4252C62.6089 37.3113 62.4901 37.2196 62.3557 37.1566C62.2212 37.0936 62.0744 37.061 61.9256 37.061H54.5746C54.0919 37.061 53.6772 37.4009 53.585 37.8709L50.3186 54.5387C50.0216 52.6632 49.2899 51.0509 48.1188 49.7206C45.9627 47.2724 42.5522 46.0312 37.9812 46.0312H23.7336C23.2507 46.0312 22.8362 46.371 22.7439 46.8403L16.1337 80.5792C16.076 80.8729 16.1532 81.1749 16.3452 81.4054C16.5362 81.6366 16.8212 81.7697 17.1234 81.7697H24.532C25.0149 81.7697 25.4294 81.4298 25.5217 80.9591L27.1208 72.7988H32.6357C35.5296 72.7988 37.9617 72.488 39.86 71.8752C41.801 71.249 43.5876 70.187 45.162 68.725C46.4343 67.5656 47.4853 66.2671 48.2943 64.8669L46.974 71.6074C46.9162 71.9013 46.9935 72.2046 47.1854 72.4337C47.3767 72.665 47.6622 72.7981 47.9637 72.7981H55.3146C55.7974 72.7981 56.212 72.4582 56.3043 71.989L59.9322 53.4694H64.9762C67.1256 53.4694 67.7554 53.894 67.9271 54.0762C68.0823 54.2428 68.4047 54.8295 68.0425 56.679L65.1187 71.6067C65.0907 71.7515 65.0951 71.9005 65.1318 72.0433C65.1687 72.1861 65.2367 72.3191 65.3312 72.4329C65.4257 72.5465 65.5444 72.6382 65.6787 72.7013C65.813 72.7642 65.9597 72.7971 66.1082 72.7973H73.5762C73.8099 72.7978 74.0364 72.7175 74.2168 72.5703C74.3974 72.423 74.5205 72.218 74.565 71.9905ZM40.4845 59.0179C40.0227 61.3716 39.153 63.0501 37.898 64.0071C36.6235 64.9822 34.5849 65.4759 31.8387 65.4759H28.5549L30.9293 53.3556H35.1749C38.2938 53.3556 39.5503 54.0167 40.055 54.5707C40.7544 55.3397 40.9029 56.8783 40.4845 59.0179ZM105.529 49.7206C103.374 47.2724 99.9632 46.0312 95.3922 46.0312H81.1446C80.661 46.0312 80.2472 46.371 80.1549 46.8403L73.5455 80.5792C73.487 80.8729 73.5642 81.1749 73.7562 81.4054C73.948 81.6359 74.2337 81.7697 74.5335 81.7697H81.943C82.4266 81.7697 82.8404 81.4298 82.9327 80.9591L84.5318 72.7988H90.0474C92.9421 72.7988 95.372 72.488 97.271 71.8752C99.2127 71.249 100.999 70.187 102.573 68.725C103.886 67.5285 104.967 66.1831 105.785 64.7307C106.604 63.2784 107.191 61.6587 107.534 59.9155C108.376 55.6163 107.702 52.1865 105.529 49.7206ZM98.3161 59.0179C97.8535 61.3716 96.9838 63.0501 95.7303 64.0071C94.455 64.9822 92.4166 65.4759 89.6711 65.4759H86.3866L88.7602 53.3556H93.0066C96.1254 53.3556 97.3819 54.0167 97.8872 54.5707C98.5852 55.3397 98.7344 56.8783 98.3161 59.0179Z" fill="white"/>
<path fill-rule="evenodd" clip-rule="evenodd" d="M34.9643 52.3556C37.7787 52.3556 39.6552 52.871 40.5931 53.9017C41.5303 54.9324 41.7537 56.7024 41.2634 59.2093C40.7506 61.8203 39.764 63.6839 38.302 64.801C36.84 65.9179 34.6149 66.4756 31.6281 66.4756H27.1207L29.8872 52.3556H34.9643ZM16.9117 80.7697H24.3205L26.0786 71.8003H32.425C35.2252 71.8003 37.5291 71.5081 39.3374 70.9243C41.1457 70.3405 42.7898 69.3626 44.269 67.989C45.5105 66.8579 46.5151 65.6086 47.2844 64.2432C48.0529 62.8778 48.5986 61.3719 48.9217 59.7247C49.706 55.7252 49.1144 52.61 47.1486 50.379C45.1836 48.1472 42.0566 47.0317 37.7704 47.0317H23.5228L16.9117 80.7697ZM54.3632 38.0615H61.7142L59.9569 47.0317H66.5064C70.6253 47.0317 73.469 47.7441 75.0329 49.1698C76.5968 50.5953 77.0654 52.9059 76.4402 56.1L73.3648 71.8003H65.8968L68.8207 56.8719C69.1529 55.1734 69.0314 54.0155 68.4535 53.3975C67.8754 52.7803 66.645 52.4708 64.7648 52.4708H58.89L55.1031 71.8003H47.7522L54.3632 38.0615ZM92.796 52.3556C95.6105 52.3556 97.4862 52.871 98.4249 53.9017C99.3621 54.9324 99.5847 56.7024 99.0944 59.2093C98.5831 61.8203 97.5964 63.6839 96.1337 64.801C94.6725 65.9179 92.4466 66.4756 89.4613 66.4756H84.9539L87.7196 52.3556H92.796ZM74.742 80.7697H82.1515L83.9088 71.8003H90.2551C93.0562 71.8003 95.3601 71.5081 97.1684 70.9243C98.9767 70.3405 100.621 69.3626 102.1 67.989C103.341 66.8579 104.346 65.6086 105.115 64.2432C105.883 62.8778 106.43 61.3719 106.753 59.7247C107.537 55.7252 106.945 52.61 104.98 50.379C103.014 48.1472 99.8876 47.0317 95.6014 47.0317H81.3538L74.742 80.7697Z" fill="black"/>
</svg>
