<svg width="101" height="100" viewBox="0 0 101 100" fill="none" xmlns="http://www.w3.org/2000/svg">
<g clip-path="url(#clip0_309_84)">
<path d="M50.3067 58.8165C55.1757 58.8165 59.1229 54.8694 59.1229 50.0003C59.1229 45.1312 55.1757 41.1841 50.3067 41.1841C45.4376 41.1841 41.4904 45.1312 41.4904 50.0003C41.4904 54.8694 45.4376 58.8165 50.3067 58.8165Z" fill="#61DAFB"/>
<path d="M50.3066 68.0631C76.4333 68.0631 97.6132 59.9762 97.6132 50.0005C97.6132 40.0249 76.4333 31.938 50.3066 31.938C24.1799 31.938 3 40.0249 3 50.0005C3 59.9762 24.1799 68.0631 50.3066 68.0631Z" stroke="#61DAFB" stroke-width="5"/>
<path d="M34.664 59.0316C47.7274 81.658 65.3207 95.9569 73.9599 90.969C82.5991 85.9812 79.0126 63.5955 65.9492 40.9691C52.8858 18.3426 35.2925 4.04378 26.6533 9.03161C18.0141 14.0194 21.6006 36.4052 34.664 59.0316Z" stroke="#61DAFB" stroke-width="5"/>
<path d="M34.664 40.9691C21.6007 63.5955 18.0141 85.9813 26.6533 90.9691C35.2925 95.9569 52.8859 81.6581 65.9492 59.0317C79.0126 36.4052 82.5991 14.0195 73.9599 9.03161C65.3208 4.04378 47.7274 18.3427 34.664 40.9691Z" stroke="#61DAFB" stroke-width="5"/>
</g>
<defs>
<clipPath id="clip0_309_84">
<rect width="101" height="100" fill="white"/>
</clipPath>
</defs>
</svg>
