<svg width="70" height="102" viewBox="0 0 70 102" fill="none" xmlns="http://www.w3.org/2000/svg">
<path d="M65.3425 13.4118C57.5545 -0.0601811 42.1715 -4.05337 31.0506 4.51169L11.5204 19.5589C10.2066 20.5572 8.98086 21.7179 7.86573 23.0225C6.7491 24.327 5.74873 25.7687 4.8798 27.3237C4.01087 28.8787 3.27765 30.5386 2.69146 32.2762C2.10661 34.0148 1.67236 35.8219 1.39575 37.6688C1.16488 39.2169 1.03895 40.7871 1.02216 42.3608C1.00397 43.936 1.09492 45.5097 1.29221 47.0646C1.4895 48.6212 1.7931 50.1559 2.1989 51.6517C2.6047 53.1474 3.1126 54.5992 3.71706 55.9934C3.3012 56.7576 2.91737 57.5466 2.56689 58.3572C2.21567 59.1677 1.89948 60.0002 1.61823 60.8496C1.33699 61.699 1.09212 62.5653 0.883642 63.4451C0.675161 64.325 0.504451 65.2168 0.37013 66.1169C-0.188012 69.9023 -0.114271 73.7843 0.58701 77.5348C0.936813 79.4044 1.43913 81.2284 2.08834 82.978C2.73756 84.7275 3.52812 86.3959 4.45162 87.956C12.2396 101.428 27.6212 105.421 38.7421 96.856L58.2723 81.8714C59.5861 80.8714 60.8091 79.709 61.9242 78.4028C63.0392 77.0975 64.0394 75.6561 64.9087 74.1015C65.7776 72.5483 66.5108 70.8884 67.0971 69.1507C67.6834 67.4147 68.1185 65.6076 68.397 63.7616C68.6278 62.2133 68.7523 60.6449 68.7692 59.0712C68.7859 57.4977 68.695 55.9241 68.4963 54.3691C68.299 52.8141 67.9954 51.2811 67.5882 49.7853C67.181 48.2913 66.6731 46.8396 66.0687 45.4453C66.4843 44.6822 66.869 43.892 67.2203 43.0816C67.5701 42.2711 67.8877 41.4386 68.1689 40.5892C68.4501 39.7398 68.6964 38.8735 68.9062 37.9936C69.1148 37.1155 69.2882 36.2238 69.4239 35.3236C69.7011 33.4352 69.8214 31.5182 69.785 29.6011C69.7486 27.684 69.5541 25.7771 69.2043 23.9058C68.8545 22.036 68.3521 20.212 67.7029 18.4625C67.0545 16.7126 66.2638 15.0451 65.3425 13.4845" fill="#FF3E00"/>
<path d="M29.1423 89.2593C27.6137 89.7394 26.0335 89.9346 24.4563 89.838C22.8794 89.7397 21.3235 89.354 19.8431 88.6891C18.3627 88.0251 16.9746 87.0922 15.7267 85.9225C14.4797 84.7521 13.3874 83.3588 12.4875 81.7906C11.932 80.8515 11.4563 79.8499 11.0672 78.7974C10.6772 77.7456 10.3748 76.6494 10.1648 75.525C9.9563 74.3999 9.83878 73.2526 9.81782 72.1003C9.79678 70.9481 9.87097 69.7958 10.0389 68.6604C10.0654 68.476 10.0962 68.2915 10.1298 68.1089C10.162 67.9244 10.1984 67.7416 10.2375 67.5606C10.2753 67.3779 10.3173 67.1969 10.3621 67.0158C10.4054 66.8364 10.453 66.6571 10.502 66.4794L10.87 65.1207L11.8732 66.026C12.4483 66.5335 13.0416 67.0124 13.6502 67.4591C14.2589 67.9075 14.883 68.3238 15.5209 68.7061C16.1576 69.0902 16.8096 69.4422 17.4715 69.7585C18.1333 70.0766 18.8063 70.3592 19.4892 70.608L20.2377 70.8702L20.1706 71.7754C20.1344 72.3916 20.1875 73.0105 20.3272 73.6045C20.3958 73.9023 20.4868 74.19 20.5973 74.4675C20.7078 74.745 20.838 75.0106 20.9863 75.2611C21.258 75.7333 21.5879 76.1528 21.9643 76.5047C22.3393 76.8566 22.7577 77.1375 23.204 77.3372C23.6504 77.5369 24.1177 77.6519 24.5934 77.6806C25.0678 77.7111 25.5435 77.6519 26.0038 77.5064C26.1102 77.4725 26.2137 77.4336 26.3172 77.3896C26.4208 77.3456 26.5229 77.2983 26.6223 77.2441C26.723 77.1916 26.821 77.1341 26.9189 77.0715C27.0155 77.0106 27.1092 76.9446 27.2016 76.8735L46.7023 61.8246C46.9414 61.6433 47.1641 61.4324 47.367 61.1952C47.5698 60.9566 47.7503 60.6943 47.9085 60.4118C48.0666 60.1292 48.1981 59.8263 48.3044 59.51C48.4093 59.1935 48.4877 58.8653 48.5381 58.5302C48.587 58.1868 48.6081 57.8399 48.601 57.4913C48.5941 57.1444 48.5577 56.7993 48.4933 56.4592C48.4304 56.1208 48.338 55.7909 48.2191 55.4728C48.1015 55.1563 47.956 54.8551 47.7881 54.5725C47.5167 54.1005 47.1878 53.6825 46.8115 53.3307C46.4351 52.9787 46.0167 52.6978 45.5718 52.4981C45.1258 52.2985 44.6573 52.1821 44.1824 52.153C43.7067 52.1242 43.2309 52.1834 42.7706 52.3272C42.6656 52.3611 42.5607 52.4 42.4572 52.444C42.3536 52.488 42.2529 52.5353 42.1521 52.5879C42.0514 52.642 41.9535 52.6995 41.8569 52.7621C41.7603 52.823 41.6652 52.8907 41.5728 52.9618L34.0843 58.7113C33.7792 58.9448 33.4658 59.1648 33.1468 59.3712C32.8264 59.5759 32.5018 59.7671 32.1701 59.9431C31.8385 60.1191 31.5013 60.2798 31.1599 60.4236C30.8185 60.5691 30.4729 60.6978 30.1231 60.8111C28.5966 61.2882 27.0197 61.4812 25.4455 61.383C23.8714 61.2849 22.3197 60.8974 20.8422 60.2358C19.3646 59.5725 17.9794 58.6402 16.7341 57.4728C15.4888 56.3052 14.3974 54.9161 13.4977 53.3509C12.945 52.4119 12.4707 51.4084 12.0831 50.356C11.6941 49.3035 11.3933 48.2071 11.1848 47.0837C10.9763 45.9584 10.8616 44.8112 10.842 43.659C10.821 42.5084 10.8951 41.3561 11.0645 40.2224C11.3952 37.9904 12.1073 35.8663 13.1549 33.9857C14.2033 32.105 15.5649 30.5098 17.1524 29.3021L36.7134 14.2548C37.017 14.0213 37.3276 13.8013 37.6453 13.5949C37.9629 13.3902 38.2875 13.199 38.6163 13.023C38.9458 12.8469 39.2809 12.6867 39.6209 12.5425C39.9595 12.397 40.3038 12.2667 40.6522 12.1533C42.1801 11.6745 43.7598 11.4782 45.3353 11.5747C46.9122 11.6728 48.4668 12.0586 49.9471 12.7236C51.4275 13.3868 52.8141 14.3208 54.0622 15.49C55.3087 16.6611 56.4005 18.055 57.2999 19.6237C57.854 20.561 58.3311 21.5627 58.7215 22.6151C59.1119 23.6676 59.4142 24.7623 59.6254 25.8876C59.8353 27.0128 59.9528 28.16 59.9739 29.3122C59.9962 30.4646 59.9235 31.6168 59.7556 32.7521C59.7262 32.9382 59.6954 33.1243 59.6604 33.3088C59.6268 33.4932 59.5904 33.6777 59.5513 33.8604C59.5135 34.0449 59.4715 34.2276 59.4282 34.4087C59.3847 34.5913 59.34 34.7724 59.291 34.9518L58.9174 36.3104L57.9212 35.4052C57.3447 34.8926 56.75 34.412 56.14 33.9602C55.53 33.5101 54.9031 33.0906 54.2637 32.7031C52.9835 31.9308 51.6519 31.2901 50.2829 30.7877L49.5329 30.5254L49.6015 29.6202C49.6225 29.3106 49.6211 28.9992 49.5973 28.6912C49.5749 28.3833 49.5287 28.077 49.4616 27.7776C49.393 27.4798 49.3048 27.187 49.1944 26.9079C49.0852 26.627 48.955 26.3597 48.8068 26.1058C48.5337 25.6421 48.204 25.2312 47.8287 24.8876C47.454 24.5422 47.0378 24.2684 46.5946 24.0753C45.704 23.6847 44.736 23.6322 43.82 23.9248C43.7136 23.9587 43.6087 23.9976 43.5066 24.0399C43.403 24.0839 43.3009 24.1329 43.2001 24.1853C43.1008 24.2378 43.0014 24.297 42.9049 24.358C42.8083 24.4206 42.7132 24.4866 42.6209 24.5577L23.0837 39.5794C22.8458 39.7605 22.6234 39.972 22.4219 40.2089C22.2203 40.4458 22.0384 40.7081 21.8803 40.989C21.7236 41.2715 21.5909 41.5725 21.4844 41.8874C21.3781 42.2038 21.2997 42.5304 21.2493 42.8654C21.2004 43.2089 21.1793 43.5574 21.1864 43.906C21.2031 44.6037 21.3329 45.2907 21.5683 45.928C21.687 46.2453 21.8309 46.5479 21.9979 46.8315C22.268 47.2985 22.5954 47.7148 22.969 48.0633C23.3418 48.4135 23.7565 48.6931 24.1989 48.8924C25.0884 49.2923 26.0573 49.3567 26.9777 49.0769C27.0826 49.0413 27.1876 49.0024 27.2911 48.9584C27.3933 48.9144 27.4954 48.8653 27.5961 48.8129C27.6964 48.7602 27.7949 48.7026 27.8914 48.6403C27.9879 48.5794 28.0831 48.5134 28.1754 48.4423L35.664 42.703C35.9704 42.4661 36.2824 42.2428 36.6028 42.0363C36.9219 41.8282 37.2479 41.637 37.5809 41.4593C37.9128 41.2832 38.2502 41.123 38.5925 40.9788C38.9353 40.8333 39.2823 40.7047 39.6335 40.593C41.1615 40.1124 42.7397 39.9162 44.3167 40.011C45.8936 40.1074 47.4481 40.4932 48.9285 41.1564C50.4074 41.8198 51.7955 42.752 53.0422 43.9229C54.2903 45.0921 55.3817 46.4847 56.2813 48.0532C56.8354 48.9922 57.3112 49.994 57.7015 51.0464C58.0919 52.0982 58.3947 53.1944 58.6054 54.3188C58.8153 55.4423 58.9328 56.5894 58.9552 57.7418C58.9776 58.8958 58.9034 60.048 58.7369 61.1816C58.572 62.2947 58.3117 63.384 57.9604 64.4321C57.6093 65.4803 57.1685 66.4812 56.6451 67.4185C56.1232 68.3559 55.5216 69.2255 54.85 70.0124C54.1783 70.7992 53.4409 71.4996 52.649 72.1021L33.1104 87.1493C32.804 87.3845 32.4906 87.6061 32.1716 87.8125C31.8511 88.019 31.5251 88.2102 31.1921 88.3862C30.8605 88.5638 30.5233 88.7245 30.1805 88.8701C29.839 89.0156 29.4921 89.1459 29.1423 89.2593Z" fill="white"/>
</svg>
